<svg width="72" height="72" viewBox="0 0 72 72" fill="none" xmlns="http://www.w3.org/2000/svg">
<g filter="url(#filter0_ddi)">
<rect x="6" y="2" width="60" height="60" rx="14" fill="white"/>
<rect x="6" y="2" width="60" height="60" rx="14" fill="url(#paint0_linear)" fill-opacity="0.1" style="mix-blend-mode:overlay"/>
</g>
<path fill-rule="evenodd" clip-rule="evenodd" d="M23.8077 29.0655V27.8014C23.8077 27.4568 24.0943 27.1694 24.4479 27.1694H48.5521C48.9072 27.1694 49.1923 27.4523 49.1923 27.8014V29.0655C46.918 29.0659 44.8765 30.0591 43.481 31.6335C42.0854 30.0586 40.0432 29.0655 37.7678 29.0655H35.2322C32.9575 29.0655 30.9156 30.0585 29.5199 31.633C28.1242 30.0585 26.0823 29.0655 23.8077 29.0655ZM51.7308 25.2732H21.2692C20.5683 25.2732 20 24.7072 20 24.0091V13.2641C20 12.566 20.5683 12 21.2692 12H26.9808C27.6817 12 28.25 12.566 28.25 13.2641V17.0565H31.4231V13.2641C31.4231 12.566 31.9913 12 32.6923 12H40.3077C41.0087 12 41.5769 12.566 41.5769 13.2641V17.0565H44.75V13.2641C44.75 12.566 45.3183 12 46.0192 12H51.7308C52.4317 12 53 12.566 53 13.2641V24.0091C53 24.7072 52.4317 25.2732 51.7308 25.2732ZM43.481 34.3524C44.8456 32.3087 47.1791 30.9617 49.8283 30.9617C50.5293 30.9617 51.0975 31.5277 51.0975 32.2258V51.1875C51.0975 51.8857 50.5293 52.4516 49.8283 52.4516H43.4808C42.7798 52.4516 42.2115 51.8857 42.2115 51.1875V38.5464C42.2115 35.753 39.9385 33.4899 37.1332 33.4899H35.8668C33.0622 33.4899 30.7885 35.7539 30.7885 38.5464V51.1875C30.7885 51.8851 30.2211 52.4507 29.521 52.4516L29.5206 52.4516H23.1731C22.4721 52.4516 21.9038 51.8857 21.9038 51.1875V32.2258C21.9038 31.5277 22.4721 30.9617 23.1731 30.9617C25.822 30.9617 28.1552 32.3084 29.5199 34.3517C30.8846 32.3084 33.2179 30.9617 35.8668 30.9617H37.1332C39.783 30.9617 42.1165 32.3085 43.481 34.3524ZM44.75 46.0746L48.4131 43.237C48.4601 43.2006 48.5089 43.168 48.5591 43.1391V40.0064L44.75 42.9571V46.0746ZM44.75 39.7542L48.4131 36.9165C48.4601 36.8801 48.5089 36.8475 48.5591 36.8187V33.6163C48.5591 33.6163 48.0069 33.7446 47.2515 34.1884C45.7544 35.0679 44.75 36.6904 44.75 38.5464V39.7542ZM44.75 49.2775V49.9234H48.5591V46.3269L44.75 49.2775ZM24.4423 43.1399C24.492 43.1686 24.5403 43.201 24.5869 43.237L28.2514 46.0757V42.9581L24.4423 40.0074V43.1399ZM24.4423 36.8194C24.492 36.8481 24.5404 36.8804 24.587 36.9165L28.2514 39.7551V38.5464C28.2514 36.1861 26.627 34.2034 24.4423 33.6462V36.8194ZM24.4423 46.3279V49.9234H28.2514V49.2786L24.4423 46.3279Z" fill="url(#paint1_linear)"/>
<defs>
<filter id="filter0_ddi" x="0" y="0" width="72" height="72" filterUnits="userSpaceOnUse" color-interpolation-filters="sRGB">
<feFlood flood-opacity="0" result="BackgroundImageFix"/>
<feColorMatrix in="SourceAlpha" type="matrix" values="0 0 0 0 0 0 0 0 0 0 0 0 0 0 0 0 0 0 127 0"/>
<feOffset dy="4"/>
<feGaussianBlur stdDeviation="3"/>
<feColorMatrix type="matrix" values="0 0 0 0 0 0 0 0 0 0 0 0 0 0 0 0 0 0 0.05 0"/>
<feBlend mode="normal" in2="BackgroundImageFix" result="effect1_dropShadow"/>
<feColorMatrix in="SourceAlpha" type="matrix" values="0 0 0 0 0 0 0 0 0 0 0 0 0 0 0 0 0 0 127 0"/>
<feOffset dy="1"/>
<feGaussianBlur stdDeviation="1.5"/>
<feColorMatrix type="matrix" values="0 0 0 0 0 0 0 0 0 0 0 0 0 0 0 0 0 0 0.1 0"/>
<feBlend mode="normal" in2="effect1_dropShadow" result="effect2_dropShadow"/>
<feBlend mode="normal" in="SourceGraphic" in2="effect2_dropShadow" result="shape"/>
<feColorMatrix in="SourceAlpha" type="matrix" values="0 0 0 0 0 0 0 0 0 0 0 0 0 0 0 0 0 0 127 0" result="hardAlpha"/>
<feOffset dy="1"/>
<feComposite in2="hardAlpha" operator="arithmetic" k2="-1" k3="1"/>
<feColorMatrix type="matrix" values="0 0 0 0 1 0 0 0 0 1 0 0 0 0 1 0 0 0 0.1 0"/>
<feBlend mode="normal" in2="shape" result="effect3_innerShadow"/>
</filter>
<linearGradient id="paint0_linear" x1="6" y1="2" x2="6" y2="62" gradientUnits="userSpaceOnUse">
<stop stop-color="white" stop-opacity="0.5"/>
<stop offset="1" stop-color="white" stop-opacity="0.01"/>
</linearGradient>
<linearGradient id="paint1_linear" x1="6.31875" y1="30.4982" x2="43.2213" y2="63.4145" gradientUnits="userSpaceOnUse">
<stop stop-color="#3142C6"/>
<stop offset="1" stop-color="#AF61D1"/>
</linearGradient>
</defs>
</svg>
